<svg width="28" height="28" viewBox="0 0 28 28" fill="none" xmlns="http://www.w3.org/2000/svg">
<rect width="28" height="28" rx="14" fill="#F5F5F5"/>
<path d="M17 17.5C16.85 17.5 16.75 17.45 16.65 17.35L14 14.7L11.35 17.35C11.15 17.55 10.85 17.55 10.65 17.35C10.45 17.15 10.45 16.85 10.65 16.65L13.3 14L10.65 11.35C10.45 11.15 10.45 10.85 10.65 10.65C10.85 10.45 11.15 10.45 11.35 10.65L14 13.3L16.65 10.65C16.85 10.45 17.15 10.45 17.35 10.65C17.55 10.85 17.55 11.15 17.35 11.35L14.7 14L17.35 16.65C17.55 16.85 17.55 17.15 17.35 17.35C17.25 17.45 17.15 17.5 17 17.5Z" fill="black" stroke="black" stroke-width="0.3"/>
</svg>
